<svg width="56" height="56" viewBox="0 0 56 56" fill="none" xmlns="http://www.w3.org/2000/svg">
<g clip-path="url(#clip0)" filter="url(#filter0_d)">
<path d="M25.563 10.4323C15.9131 10.4323 8.06299 18.2824 8.06299 27.9323C8.06299 37.5821 15.9131 45.4323 25.563 45.4323C35.2129 45.4323 43.063 37.5821 43.063 27.9323C43.063 18.2824 35.2129 10.4323 25.563 10.4323Z" fill="#9EA8AE"/>
<path d="M33.2192 29.3905H27.0212V35.5885C27.0212 36.3936 26.3681 37.0467 25.563 37.0467C24.7579 37.0467 24.1047 36.3936 24.1047 35.5885V29.3905H17.9067C17.1016 29.3905 16.4485 28.7373 16.4485 27.9322C16.4485 27.1272 17.1016 26.474 17.9067 26.474H24.1047V20.276C24.1047 19.4709 24.7579 18.8177 25.563 18.8177C26.3681 18.8177 27.0212 19.4709 27.0212 20.276V26.474H33.2192C34.0243 26.474 34.6775 27.1272 34.6775 27.9322C34.6775 28.7373 34.0243 29.3905 33.2192 29.3905Z" fill="#FAFAFA"/>
</g>
<defs>
<filter id="filter0_d" x="0.0629883" y="0.432251" width="55" height="55" filterUnits="userSpaceOnUse" color-interpolation-filters="sRGB">
<feFlood flood-opacity="0" result="BackgroundImageFix"/>
<feColorMatrix in="SourceAlpha" type="matrix" values="0 0 0 0 0 0 0 0 0 0 0 0 0 0 0 0 0 0 127 0"/>
<feOffset dx="2"/>
<feGaussianBlur stdDeviation="5"/>
<feColorMatrix type="matrix" values="0 0 0 0 0 0 0 0 0 0 0 0 0 0 0 0 0 0 0.34 0"/>
<feBlend mode="normal" in2="BackgroundImageFix" result="effect1_dropShadow"/>
<feBlend mode="normal" in="SourceGraphic" in2="effect1_dropShadow" result="shape"/>
</filter>
<clipPath id="clip0">
<rect width="35" height="35" fill="white" transform="translate(8.06299 10.4323)"/>
</clipPath>
</defs>
</svg>
