<svg width="71" height="71" viewBox="0 0 71 71" fill="none" xmlns="http://www.w3.org/2000/svg">
<circle cx="35.96" cy="35.385" r="35" fill="url(#paint0_linear)"/>
<g clip-path="url(#clip0)">
<path d="M52.5528 55.2929V59.523C52.5528 59.9993 52.1671 60.385 51.6909 60.385H20.2292C19.7529 60.385 19.3672 59.9993 19.3672 59.523V55.2929C19.3672 50.8549 22.9648 47.2594 27.4039 47.2583C28.9727 47.2573 30.354 46.4502 31.1492 45.2263C31.948 43.9986 31.8657 42.9311 31.8657 42.0682L31.8818 42.0284C28.0138 40.4273 25.2932 36.6163 25.2932 32.1696V31.8324C23.7573 31.8324 22.5996 30.6186 22.5996 29.1883V24.7104C22.5651 23.1513 22.6362 17.6531 26.6077 13.8249C31.2257 9.37388 38.5438 9.73806 43.8448 12.1192C44.0172 12.1968 44.0118 12.4436 43.8373 12.5157L42.4549 13.0846C42.248 13.1698 42.2922 13.4747 42.5142 13.4984L43.1854 13.5706C46.3995 13.9143 49.3851 15.6598 51.2362 18.5646C51.2857 18.6432 51.2717 18.7628 51.2082 18.8307C50.0661 20.0385 49.4282 21.6418 49.4282 23.3086V29.1883C49.4282 30.6483 48.2441 31.8324 46.7841 31.8324H46.6268V32.1696C46.6268 36.6163 43.9062 40.4273 40.0382 42.0284L40.0543 42.0682C40.0543 42.9062 39.9652 43.9883 40.7709 45.2263C41.566 46.4502 42.9473 47.2573 44.5161 47.2583C48.9552 47.2594 52.5528 50.8549 52.5528 55.2929Z" fill="#FFDFBA"/>
<path d="M52.5528 55.2929V59.523C52.5528 59.999 52.1669 60.385 51.6909 60.385H20.2292C19.7531 60.385 19.3672 59.999 19.3672 59.523V55.2929C19.3672 50.8549 22.9654 47.2599 27.4034 47.2583C28.9726 47.2578 30.3542 46.4498 31.1492 45.2262C33.9241 47.5969 37.9944 47.5983 40.7709 45.2262C41.5657 46.4498 42.9474 47.2578 44.5166 47.2583C48.9547 47.2599 52.5528 50.8549 52.5528 55.2929Z" fill="#FE4F60"/>
<path d="M51.2357 18.5651C51.2857 18.6437 51.2717 18.7626 51.2078 18.8303C50.066 20.039 49.4281 21.6417 49.4281 23.3086V29.1883C49.4281 30.5231 48.4226 31.8324 46.6268 31.8324V25.1769C46.6268 22.3206 44.3113 20.0051 41.455 20.0051H30.4649C27.6086 20.0051 25.2931 22.3206 25.2931 25.1769V31.8324C23.7572 31.8324 22.5995 30.6186 22.5995 29.1883V24.7104C22.565 23.1513 22.6361 17.6531 26.6076 13.8249C31.2253 9.37378 38.5441 9.73818 43.8443 12.1196C44.0167 12.197 44.0122 12.4439 43.8373 12.5159L42.4548 13.085C42.2482 13.1701 42.2917 13.4747 42.5139 13.4985L43.1854 13.5706C46.4 13.914 49.3848 15.6594 51.2357 18.5651Z" fill="#42434D"/>
<path d="M46.6267 32.1696C46.6267 38.0629 41.8484 42.8365 35.9599 42.8365C30.4119 42.8365 25.2931 38.5233 25.2931 31.8324V25.1769C25.2931 22.3206 27.6085 20.0051 30.4649 20.0051H41.4549C44.3113 20.0051 46.6267 22.3206 46.6267 25.1769V32.1696Z" fill="#FFEBD2"/>
<path d="M44.6874 58.5533H42.1015C41.6254 58.5533 41.2395 58.1674 41.2395 57.6914C41.2395 57.2153 41.6254 56.8294 42.1015 56.8294H44.6874C45.1634 56.8294 45.5493 57.2153 45.5493 57.6914C45.5493 58.1674 45.1635 58.5533 44.6874 58.5533Z" fill="white"/>
<path d="M33.5447 39.0576C35.2985 40.1547 33.9155 42.8455 31.9957 42.0749C28.0486 40.4906 25.2931 36.6441 25.2931 32.1696V25.1769C25.2931 24.0904 25.6282 23.0821 26.2005 22.2497C26.9024 21.229 28.5255 21.6799 28.5255 23.022V30.0147C28.5255 33.9485 30.5933 37.211 33.5447 39.0576Z" fill="#FFF3E4"/>
<path d="M40.1761 43.8374C37.5215 44.9486 34.6043 45.0348 31.7439 43.8374C31.89 43.2312 31.8656 42.8386 31.8656 42.0682L31.8818 42.0283C34.4765 43.1054 37.4384 43.1075 40.0382 42.0283L40.0543 42.0682C40.0543 42.8389 40.03 43.2314 40.1761 43.8374Z" fill="#FFD6A6"/>
<path d="M31.7452 49.8611C31.3468 49.9864 30.9195 50.0555 30.4613 50.0595C26.0119 50.0987 22.3841 53.6169 22.3841 58.0666V58.8765C22.3841 59.7096 21.7087 60.385 20.8756 60.385H20.2292C19.7531 60.385 19.3672 59.999 19.3672 59.523V55.2929C19.3672 50.8548 22.9654 47.2599 27.4034 47.2583C28.9726 47.2578 30.3542 46.4498 31.1492 45.2262C31.4696 45.4999 31.8127 45.7459 32.174 45.9613C33.7636 46.9085 33.5103 49.3061 31.7452 49.8611Z" fill="#FF6D7A"/>
<path d="M40.1748 49.8611C40.5732 49.9864 41.0005 50.0555 41.4587 50.0595C45.9081 50.0987 49.5359 53.6169 49.5359 58.0666V58.8765C49.5359 59.7096 50.2113 60.385 51.0444 60.385H51.6909C52.1669 60.385 52.5528 59.999 52.5528 59.523V55.2929C52.5528 50.8548 48.9547 47.2599 44.5166 47.2583C42.9474 47.2578 41.5658 46.4498 40.7708 45.2262C40.4504 45.4999 40.1073 45.7459 39.746 45.9613C38.1565 46.9085 38.4097 49.3061 40.1748 49.8611Z" fill="#E84857"/>
<path d="M43.8372 12.5157C42.5703 13.0371 42.3898 13.1521 41.9508 13.084C34.8747 11.9871 28.6664 14.9149 26.5581 21.7883V21.7894C25.7694 22.6966 25.2931 23.8818 25.2931 25.1769V29.2199C25.2931 30.9641 22.5995 31.0855 22.5995 29.1883V24.7104C22.565 23.1513 22.6361 17.6531 26.6076 13.8249C31.2256 9.37388 38.5437 9.73806 43.8448 12.1192C44.0171 12.1968 44.0118 12.4436 43.8372 12.5157Z" fill="#4D4E59"/>
</g>
<defs>
<linearGradient id="paint0_linear" x1="-5.0449" y1="6.59038" x2="104.369" y2="84.4726" gradientUnits="userSpaceOnUse">
<stop stop-color="#C4C4C4"/>
<stop offset="1" stop-color="#C4C4C4" stop-opacity="0"/>
</linearGradient>
<clipPath id="clip0">
<rect width="50" height="50" fill="white" transform="translate(10.96 10.385)"/>
</clipPath>
</defs>
</svg>
