<svg width="117" height="36" viewBox="0 0 117 36" fill="none" xmlns="http://www.w3.org/2000/svg">
<g clip-path="url(#clip0)">
<path d="M31.4995 0.848389H7.43701C6.87072 0.848389 6.41162 1.30749 6.41162 1.87378V6.3855H5.24951C4.68322 6.3855 4.22412 6.8446 4.22412 7.41089C4.22412 7.97718 4.68322 8.43628 5.24951 8.43628H6.41162V11.8542H5.24951C4.68322 11.8542 4.22412 12.3133 4.22412 12.8796C4.22412 13.4459 4.68322 13.905 5.24951 13.905H6.41162V17.323H5.24951C4.68322 17.323 4.22412 17.7821 4.22412 18.3484C4.22412 18.9147 4.68322 19.3738 5.24951 19.3738H6.41162V22.7917H5.24951C4.68322 22.7917 4.22412 23.2508 4.22412 23.8171C4.22412 24.3834 4.68322 24.8425 5.24951 24.8425H6.41162V28.2605H5.24951C4.68322 28.2605 4.22412 28.7196 4.22412 29.2859C4.22412 29.8522 4.68322 30.3113 5.24951 30.3113H6.41162V34.823C6.41162 35.3893 6.87072 35.8484 7.43701 35.8484H31.4995C32.0658 35.8484 32.5249 35.3893 32.5249 34.823V1.87378C32.5249 1.30749 32.0658 0.848389 31.4995 0.848389ZM24.937 26.4832C24.3707 26.4832 23.9116 26.0241 23.9116 25.4578C23.9116 22.736 22.2496 19.9207 19.4683 19.9207C16.6869 19.9207 15.0249 22.736 15.0249 25.4578C15.0249 26.0241 14.5658 26.4832 13.9995 26.4832C13.4332 26.4832 12.9741 26.0241 12.9741 25.4578C12.9741 22.8526 14.1635 20.1533 16.3415 18.7752C15.2865 17.8842 14.6147 16.5529 14.6147 15.0671C14.6147 12.3909 16.7921 10.2136 19.4683 10.2136C22.1445 10.2136 24.3218 12.3909 24.3218 15.0671C24.3218 16.5529 23.65 17.8842 22.595 18.7752C24.7731 20.1534 25.9624 22.8522 25.9624 25.4578C25.9624 26.0241 25.5033 26.4832 24.937 26.4832Z" fill="#5783A5"/>
<path d="M19.4683 17.8699C21.0162 17.8699 22.271 16.615 22.271 15.0671C22.271 13.5192 21.0162 12.2644 19.4683 12.2644C17.9204 12.2644 16.6655 13.5192 16.6655 15.0671C16.6655 16.615 17.9204 17.8699 19.4683 17.8699Z" fill="#5783A5"/>
</g>
<path d="M51.6995 18.5583H50.4031V23.3484H48.9968V12.6843H50.4031V17.3865H51.5017L55.2297 12.6843H56.9802L52.908 17.8552L57.2805 23.3484H55.5593L51.6995 18.5583ZM57.7932 19.3127C57.7932 18.5364 57.9446 17.8381 58.2473 17.218C58.5549 16.5979 58.9797 16.1194 59.5217 15.7825C60.0686 15.4456 60.6912 15.2771 61.3894 15.2771C62.4685 15.2771 63.3401 15.6506 64.0042 16.3977C64.6731 17.1448 65.0076 18.1384 65.0076 19.3787V19.4739C65.0076 20.2454 64.8586 20.9387 64.5608 21.554C64.2678 22.1643 63.8455 22.6404 63.2937 22.9822C62.7468 23.324 62.1169 23.4949 61.4041 23.4949C60.3298 23.4949 59.4583 23.1213 58.7893 22.3743C58.1252 21.6272 57.7932 20.6384 57.7932 19.408V19.3127ZM59.1555 19.4739C59.1555 20.3528 59.3582 21.0583 59.7634 21.5906C60.1736 22.1228 60.7205 22.3889 61.4041 22.3889C62.0925 22.3889 62.6394 22.1204 63.0447 21.5833C63.45 21.0413 63.6526 20.2844 63.6526 19.3127C63.6526 18.4436 63.4451 17.7405 63.03 17.2034C62.6199 16.6614 62.073 16.3904 61.3894 16.3904C60.7205 16.3904 60.1809 16.6565 59.7708 17.1887C59.3606 17.7209 59.1555 18.4827 59.1555 19.4739ZM73.1814 23.3484H71.8264V19.9646H68.1863V23.3484H66.824V15.4236H68.1863V18.8586H71.8264V15.4236H73.1814V23.3484ZM81.2527 16.5222H78.594V23.3484H77.239V16.5222H74.6316V15.4236H81.2527V16.5222ZM87.3464 23.3484C87.2683 23.1921 87.2048 22.9138 87.156 22.5134C86.5261 23.1677 85.7742 23.4949 84.9001 23.4949C84.1189 23.4949 83.4768 23.2751 82.9739 22.8357C82.4758 22.3914 82.2268 21.8298 82.2268 21.1511C82.2268 20.3259 82.5393 19.6863 83.1643 19.2322C83.7942 18.7732 84.678 18.5437 85.8157 18.5437H87.134V17.9211C87.134 17.4475 86.9924 17.0715 86.7092 16.7932C86.426 16.51 86.0085 16.3684 85.4568 16.3684C84.9734 16.3684 84.5681 16.4905 84.241 16.7346C83.9138 16.9788 83.7502 17.2742 83.7502 17.6208H82.3879C82.3879 17.2253 82.5271 16.8445 82.8054 16.4783C83.0886 16.1072 83.4695 15.8142 83.948 15.5994C84.4314 15.3845 84.9612 15.2771 85.5374 15.2771C86.4504 15.2771 87.1658 15.5066 87.6833 15.9656C88.2009 16.4197 88.4695 17.0471 88.489 17.8479V21.4954C88.489 22.2229 88.5818 22.8015 88.7673 23.2312V23.3484H87.3464ZM85.0979 22.3157C85.5227 22.3157 85.9255 22.2058 86.3064 21.9861C86.6873 21.7664 86.9631 21.4807 87.134 21.1292V19.5032H86.072C84.4119 19.5032 83.5818 19.989 83.5818 20.9607C83.5818 21.3855 83.7234 21.7175 84.0066 21.9568C84.2898 22.196 84.6536 22.3157 85.0979 22.3157ZM93.0813 19.9719H92.0925V23.3484H90.7302V15.4236H92.0925V18.7781H92.9788L95.6448 15.4236H97.2854L94.1506 19.2322L97.5491 23.3484H95.8279L93.0813 19.9719ZM104.602 16.5222H101.944V23.3484H100.589V16.5222H97.9812V15.4236H104.602V16.5222ZM107.4 18.1555H109.458C110.357 18.1653 111.067 18.3997 111.59 18.8586C112.112 19.3176 112.373 19.9402 112.373 20.7263C112.373 21.5173 112.105 22.1521 111.568 22.6306C111.031 23.1091 110.308 23.3484 109.4 23.3484H106.045V15.4236H107.4V18.1555ZM115.2 23.3484H113.838V15.4236H115.2V23.3484ZM107.4 19.2615V22.2424H109.414C109.922 22.2424 110.315 22.113 110.594 21.8542C110.872 21.5906 111.011 21.2317 111.011 20.7776C111.011 20.3381 110.874 19.9792 110.601 19.7009C110.332 19.4177 109.954 19.2712 109.466 19.2615H107.4Z" fill="black"/>
<defs>
<clipPath id="clip0">
<rect width="35" height="35" fill="white" transform="translate(0.874512 0.848389)"/>
</clipPath>
</defs>
</svg>
