<svg width="113" height="36" viewBox="0 0 113 36" fill="none" xmlns="http://www.w3.org/2000/svg">
<g clip-path="url(#clip0)">
<path d="M30.2141 19.5325H27.5073C27.7832 20.2878 27.934 21.103 27.934 21.9527V32.1827C27.934 32.5369 27.8723 32.8769 27.7601 33.1932H32.235C33.9066 33.1932 35.2665 31.8332 35.2665 30.1617V24.5849C35.2665 21.799 33 19.5325 30.2141 19.5325Z" fill="#5783A5"/>
<path d="M7.59918 21.9527C7.59918 21.103 7.74992 20.2878 8.02582 19.5325H5.31905C2.53313 19.5325 0.266602 21.799 0.266602 24.5849V30.1618C0.266602 31.8333 1.62648 33.1932 3.29807 33.1932H7.77302C7.66084 32.8769 7.59918 32.5369 7.59918 32.1827V21.9527Z" fill="#5783A5"/>
<path d="M20.8606 16.9004H14.6726C11.8866 16.9004 9.62012 19.1669 9.62012 21.9528V32.1828C9.62012 32.7409 10.0725 33.1933 10.6306 33.1933H24.9026C25.4606 33.1933 25.913 32.7409 25.913 32.1828V21.9528C25.913 19.1669 23.6465 16.9004 20.8606 16.9004Z" fill="#5783A5"/>
<path d="M17.7666 3.50342C14.4162 3.50342 11.6904 6.22918 11.6904 9.57969C11.6904 11.8523 12.9448 13.8371 14.7972 14.8792C15.6758 15.3734 16.6887 15.6559 17.7666 15.6559C18.8445 15.6559 19.8575 15.3734 20.7361 14.8792C22.5886 13.8371 23.8428 11.8522 23.8428 9.57969C23.8428 6.22925 21.1171 3.50342 17.7666 3.50342Z" fill="#5783A5"/>
<path d="M7.09693 9.16699C4.59121 9.16699 2.55273 11.2055 2.55273 13.7112C2.55273 16.2169 4.59121 18.2554 7.09693 18.2554C7.73254 18.2554 8.33779 18.1237 8.88761 17.8871C9.83822 17.4778 10.622 16.7533 11.107 15.8459C11.4475 15.2089 11.6411 14.4824 11.6411 13.7112C11.6411 11.2055 9.60265 9.16699 7.09693 9.16699Z" fill="#5783A5"/>
<path d="M28.4363 9.16699C25.9306 9.16699 23.8921 11.2055 23.8921 13.7112C23.8921 14.4824 24.0858 15.209 24.4262 15.8459C24.9112 16.7534 25.695 17.4779 26.6456 17.8871C27.1954 18.1237 27.8007 18.2554 28.4363 18.2554C30.942 18.2554 32.9805 16.2169 32.9805 13.7112C32.9805 11.2055 30.942 9.16699 28.4363 9.16699Z" fill="#5783A5"/>
</g>
<path d="M67.8633 13.8416H62.7217V23.3484H61.3081V12.6843H67.8633V13.8416ZM74.5723 19.4739C74.5723 20.6799 74.2964 21.6516 73.7446 22.3889C73.1929 23.1262 72.4458 23.4949 71.5034 23.4949C70.5415 23.4949 69.7847 23.1897 69.2329 22.5793V26.3953H67.8779V15.4236H69.1157L69.1816 16.3025C69.7334 15.6189 70.5 15.2771 71.4814 15.2771C72.4336 15.2771 73.1855 15.636 73.7373 16.3538C74.2939 17.0715 74.5723 18.0701 74.5723 19.3494V19.4739ZM73.2173 19.3201C73.2173 18.4265 73.0269 17.7209 72.646 17.2034C72.2651 16.6858 71.7427 16.427 71.0786 16.427C70.2583 16.427 69.6431 16.7908 69.2329 17.5183V21.3049C69.6382 22.0276 70.2583 22.3889 71.0933 22.3889C71.7427 22.3889 72.2578 22.1326 72.6387 21.6199C73.0244 21.1023 73.2173 20.3357 73.2173 19.3201ZM78.8057 21.3635L80.6514 15.4236H82.1016L78.9155 24.5715C78.4224 25.8899 77.6387 26.5491 76.5645 26.5491L76.3081 26.5271L75.8027 26.4319V25.3333L76.1689 25.3625C76.6279 25.3625 76.9844 25.2698 77.2383 25.0842C77.4971 24.8987 77.7095 24.5593 77.8755 24.0662L78.1758 23.2605L75.3486 15.4236H76.8281L78.8057 21.3635ZM89.7993 23.3484H88.4443V16.5442H84.7969V23.3484H83.4346V15.4236H89.7993V23.3484ZM98.4565 23.3484H97.1016V16.5442H93.4541V23.3484H92.0918V15.4236H98.4565V23.3484ZM102.111 18.1555H104.169C105.068 18.1653 105.778 18.3997 106.301 18.8586C106.823 19.3176 107.084 19.9402 107.084 20.7263C107.084 21.5173 106.816 22.1521 106.279 22.6306C105.742 23.1091 105.019 23.3484 104.111 23.3484H100.756V15.4236H102.111V18.1555ZM109.912 23.3484H108.549V15.4236H109.912V23.3484ZM102.111 19.2615V22.2424H104.125C104.633 22.2424 105.026 22.113 105.305 21.8542C105.583 21.5906 105.722 21.2317 105.722 20.7776C105.722 20.3381 105.585 19.9792 105.312 19.7009C105.043 19.4177 104.665 19.2712 104.177 19.2615H102.111Z" fill="black"/>
<defs>
<clipPath id="clip0">
<rect width="35" height="35" fill="white" transform="translate(0.266602 0.848389)"/>
</clipPath>
</defs>
</svg>
