<svg width="36" height="36" viewBox="0 0 36 36" fill="none" xmlns="http://www.w3.org/2000/svg">
<g clip-path="url(#clip0)">
<path d="M30.0209 34.2887H6.77869C5.04482 34.2887 3.63416 32.8781 3.63416 31.1441V14.5998C3.63416 13.9958 4.12381 13.5061 4.72791 13.5061C5.332 13.5061 5.82166 13.9958 5.82166 14.5998V31.1441C5.82166 31.6719 6.25095 32.1012 6.77869 32.1012H30.0209C30.5486 32.1012 30.9779 31.6719 30.9779 31.1441V14.5998C30.9779 13.9958 31.4676 13.5061 32.0717 13.5061C32.6757 13.5061 33.1654 13.9958 33.1654 14.5998V31.1441C33.1654 32.878 31.7548 34.2887 30.0209 34.2887Z" fill="white"/>
<path d="M34.806 18.4276C34.5261 18.4276 34.2462 18.3209 34.0327 18.1072L20.4299 4.50458C19.3105 3.38513 17.4891 3.38513 16.3696 4.50458L2.76695 18.1073C2.33984 18.5345 1.64729 18.5345 1.22018 18.1073C0.793001 17.6802 0.793001 16.9876 1.22018 16.5605L14.8229 2.95775C16.7952 0.985439 20.0044 0.985439 21.9767 2.95775L35.5794 16.5605C36.0066 16.9876 36.0066 17.6801 35.5794 18.1072C35.3659 18.3209 35.086 18.4276 34.806 18.4276Z" fill="white"/>
<path d="M22.7748 34.2887H14.0248C13.4207 34.2887 12.931 33.7989 12.931 33.1949V23.4879C12.931 21.6032 14.4643 20.0699 16.349 20.0699H20.4506C22.3352 20.0699 23.8685 21.6032 23.8685 23.4879V33.1949C23.8685 33.7989 23.3789 34.2887 22.7748 34.2887ZM15.1185 32.1012H21.681V23.4879C21.681 22.8094 21.129 22.2574 20.4506 22.2574H16.349C15.6705 22.2574 15.1185 22.8094 15.1185 23.4879V32.1012Z" fill="white"/>
</g>
<defs>
<clipPath id="clip0">
<rect width="35" height="35" fill="white" transform="translate(0.89978 0.383606)"/>
</clipPath>
</defs>
</svg>
