<svg width="242" height="60" viewBox="0 0 242 60" fill="none" xmlns="http://www.w3.org/2000/svg">
<path d="M92.1177 28.7199C91.7871 28.7199 91.6217 28.5546 91.6217 28.2239V24.3179C91.6217 24.1732 91.6631 24.0492 91.7457 23.9459C91.8491 23.8426 91.9731 23.7909 92.1177 23.7909C92.2624 23.7909 92.3864 23.8426 92.4897 23.9459C92.5931 24.0492 92.6447 24.1732 92.6447 24.3179V27.6969H100.612C100.756 27.6969 100.87 27.7486 100.953 27.8519C101.056 27.9552 101.108 28.0792 101.108 28.2239C101.108 28.5546 100.942 28.7199 100.612 28.7199H92.1177ZM92.0557 19.7299C91.7251 19.7299 91.5597 19.5542 91.5597 19.2029C91.5597 18.8722 91.7251 18.7069 92.0557 18.7069H100.798C100.942 18.7069 101.066 18.7586 101.17 18.8619C101.273 18.9446 101.325 19.0582 101.325 19.2029C101.325 19.3682 101.273 19.5026 101.17 19.6059C101.066 19.6886 100.942 19.7299 100.798 19.7299H92.0557ZM91.6217 39.9729V30.9519C91.6217 30.7866 91.6631 30.6626 91.7457 30.5799C91.8904 30.4766 92.0144 30.4249 92.1177 30.4249H99.2787C99.4234 30.4249 99.5474 30.4766 99.6507 30.5799C99.7541 30.6626 99.8057 30.7866 99.8057 30.9519C99.8057 31.0966 99.7541 31.2206 99.6507 31.3239C99.5474 31.4066 99.4234 31.4479 99.2787 31.4479H92.6447V39.9729C92.6447 40.1176 92.5931 40.2416 92.4897 40.3449C92.3864 40.4276 92.2624 40.4689 92.1177 40.4689C91.7871 40.4689 91.6217 40.3036 91.6217 39.9729ZM89.3277 40.4689C88.9971 40.4689 88.8317 40.3036 88.8317 39.9729V21.9619C88.8317 21.6312 88.9971 21.4659 89.3277 21.4659H99.0617C99.4131 21.4659 99.5887 21.6312 99.5887 21.9619C99.5887 22.1066 99.5371 22.2306 99.4337 22.3339C99.3511 22.4372 99.2271 22.4889 99.0617 22.4889H89.8547V39.9729C89.8547 40.1176 89.8031 40.2416 89.6997 40.3449C89.5964 40.4276 89.4724 40.4689 89.3277 40.4689ZM100.984 21.4349C101.128 21.4762 101.232 21.5692 101.294 21.7139C101.376 21.8379 101.387 21.9826 101.325 22.1479C101.263 22.3959 101.087 22.5199 100.798 22.5199C100.57 22.4579 100.415 22.3649 100.333 22.2409C100.25 22.0962 100.229 21.9516 100.271 21.8069V21.7759C100.374 21.5279 100.55 21.4039 100.798 21.4039C100.88 21.4039 100.942 21.4142 100.984 21.4349ZM107.274 39.7559C107.274 39.6112 107.325 39.4976 107.429 39.4149C107.532 39.3116 107.656 39.2599 107.801 39.2599H115.427C115.757 39.2599 115.923 39.4252 115.923 39.7559C115.923 39.9006 115.871 40.0246 115.768 40.1279C115.685 40.2312 115.571 40.2829 115.427 40.2829H107.801C107.656 40.2829 107.532 40.2312 107.429 40.1279C107.325 40.0246 107.274 39.9006 107.274 39.7559ZM104.949 37.5859C104.618 37.5859 104.453 37.4206 104.453 37.0899V19.1409C104.453 18.8102 104.618 18.6449 104.949 18.6449C105.3 18.6449 105.476 18.8102 105.476 19.1409V36.5629H113.722C113.887 36.5629 114.011 36.6146 114.094 36.7179C114.197 36.8212 114.249 36.9452 114.249 37.0899C114.249 37.4206 114.073 37.5859 113.722 37.5859H104.949ZM107.243 21.9309C107.243 21.6002 107.408 21.4349 107.739 21.4349C107.883 21.4349 108.007 21.4866 108.111 21.5899C108.214 21.6726 108.266 21.7862 108.266 21.9309V34.6099C108.266 34.7546 108.214 34.8786 108.111 34.9819C108.007 35.0646 107.883 35.1059 107.739 35.1059C107.408 35.1059 107.243 34.9406 107.243 34.6099V21.9309ZM115.458 37.6479C115.23 37.5859 115.075 37.4826 114.993 37.3379C114.91 37.1932 114.889 37.0486 114.931 36.9039V36.8729C115.034 36.6249 115.21 36.5009 115.458 36.5009C115.499 36.5009 115.53 36.5112 115.551 36.5319C115.571 36.5319 115.602 36.5319 115.644 36.5319C115.809 36.5732 115.923 36.6662 115.985 36.8109C116.047 36.9556 116.047 37.1002 115.985 37.2449V37.2759C115.923 37.5239 115.747 37.6479 115.458 37.6479ZM118.609 29.5259C118.609 28.5339 118.733 27.5522 118.981 26.5809C119.25 25.6096 119.622 24.7002 120.097 23.8529C120.593 22.9849 121.193 22.1996 121.895 21.4969C122.598 20.7942 123.394 20.2156 124.282 19.7609C124.324 19.7196 124.406 19.6989 124.53 19.6989C124.716 19.6989 124.861 19.7816 124.964 19.9469C125.047 20.0916 125.057 20.2362 124.995 20.3809C124.954 20.5049 124.871 20.5979 124.747 20.6599C123.941 21.0939 123.218 21.6312 122.577 22.2719C121.937 22.8919 121.399 23.5946 120.965 24.3799C120.531 25.1446 120.201 25.9712 119.973 26.8599C119.746 27.7279 119.632 28.6166 119.632 29.5259C119.632 30.7866 119.849 32.0162 120.283 33.2149C120.738 34.3929 121.358 35.4366 122.143 36.3459C122.949 37.2552 123.9 37.9889 124.995 38.5469C126.111 39.0842 127.331 39.3529 128.653 39.3529C129.976 39.3529 131.185 39.0842 132.28 38.5469C133.376 37.9889 134.316 37.2552 135.101 36.3459C135.907 35.4159 136.527 34.3619 136.961 33.1839C137.416 32.0059 137.643 30.7866 137.643 29.5259C137.643 28.3066 137.437 27.1286 137.023 25.9919C136.61 24.8346 136.031 23.8116 135.287 22.9229C134.543 22.0136 133.644 21.2696 132.59 20.6909C131.557 20.1122 130.41 19.7816 129.149 19.6989V21.8999C129.149 22.2306 128.984 22.3959 128.653 22.3959C127.703 22.3959 126.835 22.5922 126.049 22.9849C125.264 23.3776 124.592 23.9046 124.034 24.5659C123.497 25.2272 123.073 25.9816 122.763 26.8289C122.474 27.6762 122.329 28.5546 122.329 29.4639C122.329 30.3526 122.474 31.2206 122.763 32.0679C123.073 32.9152 123.507 33.6696 124.065 34.3309C124.623 34.9922 125.285 35.5192 126.049 35.9119C126.835 36.3046 127.703 36.5009 128.653 36.5009C129.604 36.5009 130.472 36.3046 131.257 35.9119C132.043 35.5192 132.714 35.0026 133.272 34.3619C133.83 33.7006 134.254 32.9462 134.543 32.0989C134.853 31.2516 135.008 30.3732 135.008 29.4639C135.008 27.9759 134.647 26.6429 133.923 25.4649C133.221 24.2869 132.26 23.4292 131.04 22.8919C130.916 22.8506 130.823 22.7679 130.761 22.6439C130.72 22.4992 130.73 22.3649 130.792 22.2409C130.854 22.0342 131.009 21.9309 131.257 21.9309C131.34 21.9309 131.402 21.9412 131.443 21.9619C132.146 22.2719 132.776 22.6852 133.334 23.2019C133.892 23.6979 134.368 24.2766 134.76 24.9379C135.174 25.5786 135.484 26.2812 135.69 27.0459C135.918 27.8106 136.031 28.6166 136.031 29.4639C136.031 30.5179 135.845 31.5306 135.473 32.5019C135.122 33.4732 134.626 34.3309 133.985 35.0749C133.345 35.8189 132.57 36.4182 131.66 36.8729C130.751 37.3069 129.749 37.5239 128.653 37.5239C127.558 37.5239 126.556 37.2966 125.646 36.8419C124.758 36.3872 123.983 35.7879 123.321 35.0439C122.681 34.2999 122.185 33.4422 121.833 32.4709C121.482 31.4996 121.306 30.4972 121.306 29.4639C121.306 28.4719 121.461 27.5109 121.771 26.5809C122.102 25.6302 122.567 24.7932 123.166 24.0699C123.766 23.3259 124.479 22.7162 125.305 22.2409C126.153 21.7449 127.093 21.4659 128.126 21.4039V19.1719C128.126 18.8412 128.302 18.6759 128.653 18.6759C130.121 18.6759 131.464 18.9859 132.683 19.6059C133.903 20.2052 134.957 21.0112 135.845 22.0239C136.734 23.0159 137.426 24.1629 137.922 25.4649C138.418 26.7669 138.666 28.1206 138.666 29.5259C138.666 30.9312 138.418 32.2952 137.922 33.6179C137.426 34.9199 136.734 36.0772 135.845 37.0899C134.957 38.0819 133.892 38.8776 132.652 39.4769C131.433 40.0762 130.1 40.3759 128.653 40.3759C127.186 40.3759 125.832 40.0762 124.592 39.4769C123.373 38.8776 122.319 38.0819 121.43 37.0899C120.542 36.0772 119.849 34.9199 119.353 33.6179C118.857 32.2952 118.609 30.9312 118.609 29.5259ZM125.615 19.3579C125.677 19.1099 125.853 18.9859 126.142 18.9859C126.225 18.9859 126.287 18.9962 126.328 19.0169C126.473 19.0582 126.576 19.1512 126.638 19.2959C126.7 19.4406 126.711 19.5852 126.669 19.7299C126.566 19.9986 126.39 20.1329 126.142 20.1329C125.894 20.0502 125.729 19.9469 125.646 19.8229C125.564 19.6782 125.553 19.5336 125.615 19.3889V19.3579ZM158.824 30.3009C158.452 30.2389 158.286 30.0426 158.328 29.7119L159.63 21.0319C159.671 20.7426 159.836 20.5979 160.126 20.5979C160.146 20.5979 160.167 20.6082 160.188 20.6289C160.332 20.6496 160.446 20.7116 160.529 20.8149C160.632 20.9182 160.663 21.0422 160.622 21.1869L159.351 29.8359C159.289 30.1459 159.113 30.3009 158.824 30.3009ZM156.561 38.8879C156.333 38.8879 156.178 38.7846 156.096 38.5779L153.089 31.2619C153.027 31.1379 153.016 31.0139 153.058 30.8899C153.12 30.7452 153.223 30.6522 153.368 30.6109C153.45 30.5696 153.512 30.5489 153.554 30.5489C153.802 30.5489 153.957 30.6626 154.019 30.8899L157.057 38.2059C157.098 38.3299 157.088 38.4642 157.026 38.6089C156.984 38.7329 156.902 38.8156 156.778 38.8569L156.561 38.8879ZM160.374 40.5309C160.167 40.5309 160.012 40.4276 159.909 40.2209L153.864 26.3639L148.129 38.5779C148.025 38.7846 147.87 38.8879 147.664 38.8879C147.602 38.8879 147.529 38.8672 147.447 38.8259C147.323 38.7639 147.23 38.6709 147.168 38.5469C147.126 38.4022 147.137 38.2679 147.199 38.1439L153.399 24.9379C153.502 24.7312 153.657 24.6279 153.864 24.6279C154.112 24.6279 154.267 24.7312 154.329 24.9379L160.126 38.1749L162.854 19.2959C162.874 19.1512 162.936 19.0479 163.04 18.9859C163.143 18.9032 163.267 18.8619 163.412 18.8619C163.556 18.8826 163.67 18.9446 163.753 19.0479C163.856 19.1512 163.887 19.2752 163.846 19.4199L160.901 40.0969C160.859 40.3449 160.704 40.4896 160.436 40.5309H160.374ZM145.091 30.1149C144.967 30.1149 144.853 30.0736 144.75 29.9909C144.667 29.8876 144.605 29.7739 144.564 29.6499L143.293 19.4199C143.251 19.0892 143.396 18.9032 143.727 18.8619C143.871 18.8619 143.995 18.9032 144.099 18.9859C144.202 19.0479 144.264 19.1512 144.285 19.2959L145.587 29.5259C145.628 29.8566 145.483 30.0426 145.153 30.0839L145.091 30.1149ZM143.851 40.5309C143.541 40.4689 143.365 40.3242 143.324 40.0969L140.379 19.4199C140.337 19.2752 140.358 19.1512 140.441 19.0479C140.544 18.9446 140.668 18.8826 140.813 18.8619C140.957 18.8619 141.081 18.9032 141.185 18.9859C141.288 19.0479 141.35 19.1512 141.371 19.2959L144.099 38.2679L152.035 21.5589C152.138 21.3729 152.293 21.2799 152.5 21.2799C152.603 21.2799 152.675 21.3006 152.717 21.3419C152.841 21.3832 152.923 21.4762 152.965 21.6209C153.027 21.7449 153.027 21.8689 152.965 21.9929L144.316 40.2209C144.212 40.4276 144.057 40.5309 143.851 40.5309ZM160.374 19.9779C160.146 19.9159 159.991 19.8126 159.909 19.6679C159.826 19.5232 159.805 19.3786 159.847 19.2339V19.2029C159.95 18.9549 160.126 18.8309 160.374 18.8309C160.415 18.8309 160.446 18.8412 160.467 18.8619C160.487 18.8619 160.518 18.8619 160.56 18.8619C160.725 18.9032 160.839 18.9962 160.901 19.1409C160.963 19.2856 160.963 19.4302 160.901 19.5749V19.6059C160.839 19.8539 160.663 19.9779 160.374 19.9779ZM179.454 40.0039C179.454 40.3346 179.289 40.4999 178.958 40.4999C178.814 40.4999 178.69 40.4586 178.586 40.3759C178.483 40.2726 178.431 40.1486 178.431 40.0039V32.5329C178.431 32.3676 178.483 32.2436 178.586 32.1609C178.69 32.0576 178.814 32.0059 178.958 32.0059C179.289 32.0059 179.454 32.1816 179.454 32.5329V40.0039ZM181.221 26.9529V22.1169C181.221 21.9722 181.273 21.8482 181.376 21.7449C181.48 21.6416 181.604 21.5899 181.748 21.5899H187.483C187.649 21.5899 187.773 21.6416 187.855 21.7449C187.959 21.8482 188.01 21.9722 188.01 22.1169C188.01 22.4476 187.835 22.6129 187.483 22.6129H182.244V26.9529C182.244 27.2836 182.079 27.4489 181.748 27.4489C181.604 27.4489 181.48 27.4076 181.376 27.3249C181.273 27.2216 181.221 27.0976 181.221 26.9529ZM176.54 21.5899C176.685 21.5899 176.799 21.6416 176.881 21.7449C176.985 21.8482 177.036 21.9722 177.036 22.1169C177.036 22.4476 176.871 22.6129 176.54 22.6129H172.758C172.407 22.6129 172.231 22.4476 172.231 22.1169C172.231 21.9722 172.273 21.8482 172.355 21.7449C172.459 21.6416 172.593 21.5899 172.758 21.5899H176.54ZM179.423 19.3889V29.1849H181.748C181.893 29.1849 182.007 29.2366 182.089 29.3399C182.193 29.4432 182.244 29.5672 182.244 29.7119V37.6169C182.244 37.9682 182.079 38.1439 181.748 38.1439C181.604 38.1439 181.48 38.1026 181.376 38.0199C181.273 37.9166 181.221 37.7822 181.221 37.6169V30.2079H178.927C178.783 30.2079 178.659 30.1666 178.555 30.0839C178.452 29.9806 178.4 29.8566 178.4 29.7119V19.8849H172.758C172.407 19.8849 172.231 19.7196 172.231 19.3889C172.231 19.0376 172.407 18.8619 172.758 18.8619H178.927C179.258 18.8619 179.423 19.0376 179.423 19.3889ZM181.748 18.8619H185.778C186.109 18.8619 186.274 19.0376 186.274 19.3889C186.274 19.7196 186.109 19.8849 185.778 19.8849H181.748C181.604 19.8849 181.48 19.8436 181.376 19.7609C181.273 19.6576 181.221 19.5336 181.221 19.3889C181.221 19.2236 181.273 19.0996 181.376 19.0169C181.48 18.9136 181.604 18.8619 181.748 18.8619ZM187.669 18.8309C187.835 18.8722 187.948 18.9652 188.01 19.1099C188.072 19.2546 188.083 19.3992 188.041 19.5439H188.01C187.948 19.8126 187.773 19.9469 187.483 19.9469C187.256 19.8642 187.101 19.7609 187.018 19.6369C186.936 19.4922 186.915 19.3476 186.956 19.2029L186.987 19.1719C187.049 18.9239 187.225 18.7999 187.514 18.7999C187.597 18.7999 187.649 18.8102 187.669 18.8309ZM194.358 38.2369V30.2079H192.033C191.703 30.2079 191.537 30.0426 191.537 29.7119V19.3269C191.537 19.1822 191.579 19.0582 191.661 18.9549C191.765 18.8516 191.889 18.7999 192.033 18.7999C192.178 18.7999 192.302 18.8516 192.405 18.9549C192.509 19.0582 192.56 19.1822 192.56 19.3269V29.1849H194.854C194.999 29.1849 195.123 29.2366 195.226 29.3399C195.33 29.4432 195.381 29.5672 195.381 29.7119V38.2369C195.381 38.3816 195.33 38.5056 195.226 38.6089C195.123 38.6916 194.999 38.7329 194.854 38.7329C194.524 38.7329 194.358 38.5676 194.358 38.2369ZM191.568 32.5019C191.568 32.1712 191.734 32.0059 192.064 32.0059C192.416 32.0059 192.591 32.1712 192.591 32.5019V40.0039C192.591 40.3346 192.416 40.4999 192.064 40.4999C191.734 40.4999 191.568 40.3346 191.568 40.0039V32.5019ZM195.381 26.9529C195.381 27.0976 195.33 27.2216 195.226 27.3249C195.123 27.4076 194.999 27.4489 194.854 27.4489C194.524 27.4489 194.358 27.2836 194.358 26.9529V21.6209C194.358 21.4762 194.4 21.3522 194.482 21.2489C194.586 21.1456 194.71 21.0939 194.854 21.0939C194.999 21.0939 195.123 21.1456 195.226 21.2489C195.33 21.3522 195.381 21.4762 195.381 21.6209V26.9529ZM194.668 40.4999C194.524 40.4586 194.42 40.3656 194.358 40.2209C194.296 40.0762 194.286 39.9316 194.327 39.7869V39.7559C194.431 39.5079 194.606 39.3839 194.854 39.3839C194.896 39.3839 194.927 39.3942 194.947 39.4149C194.968 39.4149 194.999 39.4149 195.04 39.4149C195.206 39.4562 195.319 39.5492 195.381 39.6939C195.443 39.8386 195.443 39.9832 195.381 40.1279V40.1589C195.319 40.4069 195.144 40.5309 194.854 40.5309L194.668 40.4999ZM217.807 39.5389C217.951 39.5802 218.055 39.6732 218.117 39.8179C218.179 39.9419 218.189 40.0866 218.148 40.2519C218.086 40.4999 217.91 40.6239 217.621 40.6239C217.393 40.5619 217.238 40.4689 217.156 40.3449C217.073 40.2002 217.052 40.0452 217.094 39.8799C217.197 39.6319 217.373 39.5079 217.621 39.5079C217.703 39.5079 217.765 39.5182 217.807 39.5389ZM204.012 40.5929C203.867 40.5929 203.743 40.5412 203.64 40.4379C203.557 40.3346 203.516 40.2106 203.516 40.0659V30.3629C203.516 30.0322 203.681 29.8669 204.012 29.8669C204.156 29.8669 204.28 29.9186 204.384 30.0219C204.487 30.1046 204.539 30.2182 204.539 30.3629V40.0659C204.539 40.2106 204.487 40.3346 204.384 40.4379C204.28 40.5412 204.156 40.5929 204.012 40.5929ZM209.344 28.8749C209.137 28.8749 208.982 28.7922 208.879 28.6269L204.818 21.3109C204.735 21.1869 204.714 21.0629 204.756 20.9389C204.797 20.7942 204.88 20.6806 205.004 20.5979C205.128 20.5566 205.21 20.5359 205.252 20.5359C205.458 20.5359 205.603 20.6289 205.686 20.8149L209.778 28.0999C209.86 28.2239 209.881 28.3582 209.84 28.5029C209.798 28.6269 209.716 28.7302 209.592 28.8129C209.468 28.8542 209.385 28.8749 209.344 28.8749ZM201.284 40.5929C201.139 40.5929 201.015 40.5412 200.912 40.4379C200.808 40.3346 200.757 40.2106 200.757 40.0659V19.4199C200.757 19.1512 200.891 18.9859 201.16 18.9239C201.284 18.9239 201.387 18.9446 201.47 18.9859C201.573 19.0066 201.656 19.0789 201.718 19.2029L209.034 33.2149L215.978 20.8149C216.081 20.6496 216.226 20.5669 216.412 20.5669C216.536 20.5669 216.618 20.5876 216.66 20.6289C216.784 20.6909 216.866 20.7942 216.908 20.9389C216.949 21.0629 216.939 21.1869 216.877 21.3109L209.468 34.5479C209.344 34.7546 209.189 34.8372 209.003 34.7959C208.775 34.7959 208.631 34.7132 208.569 34.5479L201.78 21.5279V40.0659C201.78 40.2106 201.728 40.3346 201.625 40.4379C201.542 40.5412 201.428 40.5929 201.284 40.5929ZM217.621 38.8569C217.29 38.8569 217.125 38.6916 217.125 38.3609V30.3629C217.125 30.0322 217.29 29.8669 217.621 29.8669C217.765 29.8669 217.889 29.9186 217.993 30.0219C218.096 30.1046 218.148 30.2182 218.148 30.3629V38.3609C218.148 38.5056 218.096 38.6296 217.993 38.7329C217.889 38.8156 217.765 38.8569 217.621 38.8569ZM220.411 40.5929C220.266 40.5929 220.142 40.5412 220.039 40.4379C219.935 40.3346 219.884 40.2106 219.884 40.0659V21.4349L210.894 37.8959C210.79 38.0819 210.635 38.1749 210.429 38.1749C210.367 38.1749 210.284 38.1439 210.181 38.0819C210.057 38.0199 209.974 37.9269 209.933 37.8029C209.891 37.6582 209.912 37.5239 209.995 37.3999L219.946 19.1719C220.008 19.0686 220.09 19.0066 220.194 18.9859C220.297 18.9446 220.411 18.9239 220.535 18.9239C220.783 18.9859 220.907 19.1512 220.907 19.4199V40.0659C220.907 40.2106 220.855 40.3346 220.752 40.4379C220.669 40.5412 220.555 40.5929 220.411 40.5929ZM226.457 40.5619C226.313 40.5619 226.189 40.5102 226.085 40.4069C225.982 40.3036 225.93 40.1796 225.93 40.0349V31.0449C225.93 30.9002 225.982 30.7762 226.085 30.6729C226.189 30.5696 226.313 30.5179 226.457 30.5179H234.92C235.065 30.5179 235.189 30.5696 235.292 30.6729C235.396 30.7762 235.447 30.9002 235.447 31.0449C235.447 31.1896 235.396 31.3136 235.292 31.4169C235.189 31.4996 235.065 31.5409 234.92 31.5409H226.953V39.5389H237.71C238.041 39.5389 238.206 39.7042 238.206 40.0349C238.206 40.1796 238.155 40.3036 238.051 40.4069C237.969 40.5102 237.855 40.5619 237.71 40.5619H226.457ZM226.457 28.8439C226.313 28.8439 226.189 28.7922 226.085 28.6889C225.982 28.5856 225.93 28.4616 225.93 28.3169V19.2649C225.93 19.1202 225.982 18.9962 226.085 18.8929C226.189 18.7896 226.313 18.7379 226.457 18.7379C226.602 18.7379 226.716 18.7896 226.798 18.8929C226.902 18.9962 226.953 19.1202 226.953 19.2649V27.8209H234.92C235.065 27.8209 235.189 27.8726 235.292 27.9759C235.396 28.0586 235.447 28.1722 235.447 28.3169C235.447 28.4616 235.396 28.5856 235.292 28.6889C235.189 28.7922 235.065 28.8439 234.92 28.8439H226.457ZM237.648 21.5279C237.793 21.5279 237.917 21.5796 238.02 21.6829C238.124 21.7862 238.175 21.9102 238.175 22.0549C238.175 22.1996 238.124 22.3236 238.02 22.4269C237.917 22.5096 237.793 22.5509 237.648 22.5509H229.619V26.0229C229.619 26.1676 229.568 26.2916 229.464 26.3949C229.361 26.4982 229.237 26.5499 229.092 26.5499C228.948 26.5499 228.824 26.4982 228.72 26.3949C228.638 26.2916 228.596 26.1676 228.596 26.0229V22.0549C228.596 21.9102 228.638 21.7862 228.72 21.6829C228.824 21.5796 228.948 21.5279 229.092 21.5279H237.648ZM228.999 19.8539C228.855 19.8539 228.731 19.8022 228.627 19.6989C228.545 19.5956 228.503 19.4716 228.503 19.3269C228.503 18.9962 228.669 18.8309 228.999 18.8309H237.71C237.855 18.8309 237.979 18.8826 238.082 18.9859C238.186 19.0686 238.237 19.1822 238.237 19.3269C238.237 19.4716 238.186 19.5956 238.082 19.6989C237.979 19.8022 237.855 19.8539 237.71 19.8539H228.999ZM229.092 32.7189C229.237 32.7189 229.361 32.7706 229.464 32.8739C229.568 32.9566 229.619 33.0806 229.619 33.2459V36.9039H235.819C235.964 36.9039 236.088 36.9556 236.191 37.0589C236.295 37.1622 236.346 37.2862 236.346 37.4309C236.346 37.5756 236.295 37.6996 236.191 37.8029C236.088 37.8856 235.964 37.9269 235.819 37.9269H229.092C228.762 37.9269 228.596 37.7616 228.596 37.4309V33.2459C228.596 32.8946 228.762 32.7189 229.092 32.7189ZM237.741 36.8729C237.886 36.9142 237.989 37.0072 238.051 37.1519C238.113 37.2759 238.124 37.4102 238.082 37.5549V37.5859C237.979 37.8339 237.803 37.9579 237.555 37.9579C237.328 37.8959 237.173 37.8029 237.09 37.6789C237.008 37.5342 236.987 37.3792 237.028 37.2139C237.132 36.9659 237.307 36.8419 237.555 36.8419C237.638 36.8419 237.7 36.8522 237.741 36.8729Z" fill="white"/>
<path d="M13.125 39.3749L8.4375 29.0624V15.9374C8.4375 15.4401 8.23996 14.9632 7.88832 14.6116C7.53669 14.26 7.05978 14.0624 6.5625 14.0624H4.6875C4.19022 14.0624 3.71331 14.26 3.36167 14.6116C3.01004 14.9632 2.8125 15.4401 2.8125 15.9374V31.8749L9.375 46.8749V57.1874H19.6875V39.3749L14.0305 28.0609C13.915 27.8298 13.7529 27.6251 13.5546 27.4596C13.3562 27.2941 13.1257 27.1714 12.8777 27.0992C12.6296 27.0269 12.3693 27.0067 12.1131 27.0399C11.8569 27.073 11.6103 27.1587 11.3888 27.2916L9.87199 28.2017C9.47707 28.4386 9.18314 28.8125 9.04624 29.2522C8.90935 29.6919 8.93906 30.1666 9.12973 30.5858L13.125 39.3749Z" fill="#F7CCA9"/>
<path d="M46.875 39.3749L51.5625 29.0624V15.9374C51.5625 15.4401 51.76 14.9632 52.1117 14.6116C52.4633 14.26 52.9402 14.0624 53.4375 14.0624H55.3125C55.8098 14.0624 56.2867 14.26 56.6383 14.6116C56.99 14.9632 57.1875 15.4401 57.1875 15.9374V31.8749L50.625 46.8749V57.1874H40.3125V39.3749L45.9695 28.0609C46.085 27.8298 46.2471 27.6251 46.4454 27.4596C46.6438 27.2941 46.8743 27.1714 47.1223 27.0992C47.3704 27.0269 47.6307 27.0067 47.8869 27.0399C48.1431 27.073 48.3897 27.1587 48.6113 27.2916L50.128 28.2017C50.5229 28.4386 50.8169 28.8125 50.9538 29.2522C51.0907 29.6919 51.0609 30.1666 50.8703 30.5858L46.875 39.3749Z" fill="#F7CCA9"/>
<path d="M30 35.6249C25.7375 35.6249 23.4375 26.9305 23.4375 18.7499C23.4375 10.5693 25.7375 1.87491 30 1.87491C34.2625 1.87491 36.5625 10.5693 36.5625 18.7499C36.5625 26.9305 34.2625 35.6249 30 35.6249ZM30 3.74991C28.043 3.74991 25.3125 9.45635 25.3125 18.7499C25.3125 28.0435 28.043 33.7499 30 33.7499C31.957 33.7499 34.6875 28.0435 34.6875 18.7499C34.6875 9.45635 31.957 3.74991 30 3.74991Z" fill="#3397E8"/>
<path d="M40.9354 29.9986C37.517 29.9986 32.2912 27.9655 26.965 24.4823C19.9182 19.8738 13.4464 12.9789 15.3327 9.27836C15.6084 8.73742 16.1991 8.0227 17.4479 7.69035C20.6612 6.83488 26.779 8.92633 33.0349 13.0176C40.0817 17.6261 46.5535 24.5209 44.6673 28.2215C44.3915 28.7624 43.8008 29.4771 42.552 29.8095C42.0236 29.942 41.4802 30.0056 40.9354 29.9986ZM19.0528 9.3768C18.6746 9.37035 18.2971 9.41253 17.9297 9.50231C17.457 9.62805 17.1539 9.83336 17.0028 10.1297C16.1093 11.8826 19.8573 17.5939 27.9908 22.913C34.5852 27.2255 39.911 28.5723 42.0693 27.9975C42.542 27.8718 42.8451 27.6665 42.9962 27.3701C43.8897 25.6172 40.1417 19.906 32.0082 14.5868C26.3633 10.8947 21.6472 9.3768 19.0528 9.3768Z" fill="#1261A0"/>
<path d="M19.0646 29.9986C18.5199 30.0056 17.9765 29.942 17.448 29.8094C16.1993 29.4771 15.6082 28.7624 15.3328 28.2214C13.4461 24.5209 19.9183 17.6261 26.9652 13.0175C33.221 8.92629 39.3388 6.83531 42.5521 7.69031C43.8009 8.02265 44.392 8.73738 44.6674 9.27832C46.5541 12.9789 40.0818 19.8737 33.035 24.4822C27.7093 27.9653 22.4831 29.9986 19.0646 29.9986ZM40.9473 9.37675C38.353 9.37675 33.6372 10.8944 27.9914 14.5868C19.8579 19.9059 16.1099 25.6171 17.004 27.3701C17.1551 27.6664 17.4582 27.8718 17.9308 27.9975C20.0891 28.5717 25.4149 27.2257 32.0094 22.913C40.1429 17.5938 43.8909 11.8826 42.9973 10.1297C42.8463 9.83332 42.5431 9.628 42.0705 9.50226C41.703 9.41254 41.3255 9.37036 40.9473 9.37675Z" fill="#2978B8"/>
<path d="M30 20.6249C31.0355 20.6249 31.875 19.7854 31.875 18.7499C31.875 17.7144 31.0355 16.8749 30 16.8749C28.9645 16.8749 28.125 17.7144 28.125 18.7499C28.125 19.7854 28.9645 20.6249 30 20.6249Z" fill="#EB423F"/>
<path d="M14.063 42.1874C13.8828 42.1875 13.7065 42.1357 13.555 42.0382C13.4035 41.9407 13.2834 41.8016 13.2089 41.6376L8.52139 31.3251C8.46968 31.2129 8.44065 31.0916 8.43597 30.9682C8.4313 30.8447 8.45106 30.7216 8.49414 30.6058C8.53721 30.49 8.60274 30.3839 8.68697 30.2935C8.77119 30.2031 8.87244 30.1303 8.98491 30.0792C9.09737 30.0281 9.21883 29.9997 9.3423 29.9957C9.46576 29.9916 9.58881 30.0121 9.70436 30.0557C9.81991 30.0994 9.92569 30.1655 10.0156 30.2502C10.1055 30.3349 10.1778 30.4366 10.2283 30.5493L14.9158 40.8618C14.9808 41.0046 15.0089 41.1614 14.9975 41.3178C14.9862 41.4742 14.9357 41.6253 14.8509 41.7572C14.766 41.8891 14.6494 41.9976 14.5118 42.0728C14.3741 42.1479 14.2198 42.1874 14.063 42.1874Z" fill="#E0B999"/>
<path d="M45.9375 42.1874C45.7807 42.1873 45.6263 42.1479 45.4887 42.0727C45.351 41.9976 45.2344 41.8891 45.1496 41.7572C45.0647 41.6253 45.0143 41.4742 45.0029 41.3178C44.9916 41.1613 45.0197 41.0045 45.0846 40.8618L49.7721 30.5493C49.8758 30.3243 50.0644 30.1494 50.2966 30.063C50.5289 29.9767 50.7858 29.9857 51.0114 30.0882C51.237 30.1907 51.4128 30.3784 51.5004 30.6102C51.5881 30.8419 51.5804 31.0989 51.4791 31.3251L46.7916 41.6376C46.7171 41.8016 46.5969 41.9407 46.4454 42.0382C46.294 42.1357 46.1176 42.1875 45.9375 42.1874Z" fill="#E0B999"/>
</svg>
