<svg width="51" height="51" viewBox="0 0 51 51" fill="none" xmlns="http://www.w3.org/2000/svg">
<g clip-path="url(#clip0)">
<path d="M25.1427 50.0054C38.9498 50.0054 50.1427 38.8125 50.1427 25.0054C50.1427 11.1983 38.9498 0.00539398 25.1427 0.00539398C11.3356 0.00539398 0.1427 11.1983 0.1427 25.0054C0.1427 38.8125 11.3356 50.0054 25.1427 50.0054Z" fill="#776D6B"/>
<path d="M50.1427 25.0054C50.1427 24.5615 50.1306 24.1205 50.1078 23.6823L38.5628 12.1373L12.2746 38.4255L23.8196 49.9705C24.2578 49.9934 24.6988 50.0054 25.1427 50.0054C38.9498 50.0054 50.1427 38.8125 50.1427 25.0054Z" fill="#57555C"/>
<path d="M25.1427 43.5986C35.4115 43.5986 43.736 35.2742 43.736 25.0054C43.736 14.7366 35.4115 6.41212 25.1427 6.41212C14.8739 6.41212 6.54944 14.7366 6.54944 25.0054C6.54944 35.2742 14.8739 43.5986 25.1427 43.5986Z" fill="#5EEFEE"/>
<path d="M43.7355 25.0054C43.7355 35.2739 35.4113 43.5982 25.1427 43.5982V6.41261C35.4113 6.41261 43.7355 14.7368 43.7355 25.0054Z" fill="#54C9FC"/>
<path d="M35.3441 22.0577H28.0903V14.8039H22.195V22.0577H14.9412V27.953H22.195V35.2069H28.0903V27.953H35.3441V22.0577Z" fill="white"/>
<path d="M28.0904 27.953H35.3442V22.0577H28.0904V14.8039H25.1427V35.2069H28.0904V27.953Z" fill="#EAE1DC"/>
</g>
<defs>
<clipPath id="clip0">
<rect width="50" height="50" fill="white" transform="translate(0.1427 0.00539398)"/>
</clipPath>
</defs>
</svg>
