<svg width="40" height="40" viewBox="0 0 40 40" fill="none" xmlns="http://www.w3.org/2000/svg">
<path fill-rule="evenodd" clip-rule="evenodd" d="M25.7938 18.8967C25.7938 22.7056 22.706 25.7934 18.8969 25.7934C15.0878 25.7934 12 22.7056 12 18.8967C12 15.0878 15.0878 12 18.8969 12C22.706 12 25.7938 15.0878 25.7938 18.8967ZM24.4414 25.8549C22.9207 27.0682 20.9935 27.7934 18.8969 27.7934C13.9833 27.7934 10 23.8102 10 18.8967C10 13.9832 13.9833 10 18.8969 10C23.8105 10 27.7938 13.9832 27.7938 18.8967C27.7938 20.9931 27.0687 22.9201 25.8556 24.4407L29.7084 28.2934C30.0989 28.6839 30.0989 29.317 29.7084 29.7076C29.3178 30.0981 28.6847 30.0981 28.2941 29.7076L24.4414 25.8549Z" fill="#919294"/>
</svg>
