<svg width="36" height="36" viewBox="0 0 36 36" fill="none" xmlns="http://www.w3.org/2000/svg">
<g clip-path="url(#clip0)">
<path d="M12.7943 17.28H5.41151C2.92371 17.28 0.899796 15.2561 0.899796 12.7683V5.3855C0.899796 2.8977 2.92371 0.873779 5.41151 0.873779H12.7943C15.2821 0.873779 17.306 2.8977 17.306 5.3855V12.7683C17.306 15.2561 15.2821 17.28 12.7943 17.28ZM5.41151 3.06128C4.12991 3.06128 3.0873 4.1039 3.0873 5.3855V12.7683C3.0873 14.0499 4.12991 15.0925 5.41151 15.0925H12.7943C14.0759 15.0925 15.1185 14.0499 15.1185 12.7683V5.3855C15.1185 4.1039 14.0759 3.06128 12.7943 3.06128H5.41151Z" fill="white"/>
<path d="M31.3881 17.28H24.0053C21.5175 17.28 19.4935 15.2561 19.4935 12.7683V5.3855C19.4935 2.8977 21.5175 0.873779 24.0053 0.873779H31.3881C33.8759 0.873779 35.8998 2.8977 35.8998 5.3855V12.7683C35.8998 15.2561 33.8759 17.28 31.3881 17.28ZM24.0053 3.06128C22.7237 3.06128 21.681 4.1039 21.681 5.3855V12.7683C21.681 14.0499 22.7237 15.0925 24.0053 15.0925H31.3881C32.6697 15.0925 33.7123 14.0499 33.7123 12.7683V5.3855C33.7123 4.1039 32.6697 3.06128 31.3881 3.06128H24.0053Z" fill="white"/>
<path d="M27.6967 35.8738C23.1735 35.8738 19.4935 32.1939 19.4935 27.6707C19.4935 23.1475 23.1735 19.4675 27.6967 19.4675C32.2199 19.4675 35.8998 23.1475 35.8998 27.6707C35.8998 32.1939 32.2199 35.8738 27.6967 35.8738ZM27.6967 21.655C24.3797 21.655 21.681 24.3537 21.681 27.6707C21.681 30.9877 24.3797 33.6863 27.6967 33.6863C31.0137 33.6863 33.7123 30.9877 33.7123 27.6707C33.7123 24.3537 31.0137 21.655 27.6967 21.655Z" fill="white"/>
<path d="M12.7943 35.8738H5.41151C2.92371 35.8738 0.899796 33.8499 0.899796 31.3621V23.9792C0.899796 21.4914 2.92371 19.4675 5.41151 19.4675H12.7943C15.2821 19.4675 17.306 21.4914 17.306 23.9792V31.3621C17.306 33.8499 15.2821 35.8738 12.7943 35.8738ZM5.41151 21.655C4.12991 21.655 3.0873 22.6976 3.0873 23.9792V31.3621C3.0873 32.6437 4.12991 33.6863 5.41151 33.6863H12.7943C14.0759 33.6863 15.1185 32.6437 15.1185 31.3621V23.9792C15.1185 22.6976 14.0759 21.655 12.7943 21.655H5.41151Z" fill="white"/>
</g>
<defs>
<clipPath id="clip0">
<rect width="35" height="35" fill="white" transform="translate(0.899796 0.873779)"/>
</clipPath>
</defs>
</svg>
