<svg width="51" height="51" viewBox="0 0 51 51" fill="none" xmlns="http://www.w3.org/2000/svg">
<g clip-path="url(#clip0)">
<path d="M25.8742 50.6691C39.6812 50.6691 50.8739 39.4763 50.8739 25.6694C50.8739 11.8624 39.6812 0.669678 25.8742 0.669678C12.0673 0.669678 0.874512 11.8624 0.874512 25.6694C0.874512 39.4763 12.0673 50.6691 25.8742 50.6691Z" fill="#41B4E6"/>
<path d="M50.8746 25.6697C50.8746 25.0605 50.8516 24.4569 50.8088 23.8586L40.4476 13.4976L11.3015 24.9623L22.453 36.1139L22.5993 36.6404L22.7886 36.4495L22.7894 36.4503L22.5993 36.6404L34.9349 48.9761C44.263 45.3472 50.8746 36.2811 50.8746 25.6697Z" fill="#0091C8"/>
<path d="M23.4465 29.312L34.7444 37.842L40.4475 13.4976L11.3013 24.9623L20.1701 27.8999L36.356 17.0429L23.4465 29.312Z" fill="white"/>
<path d="M20.1702 27.9L22.5992 36.6406L23.4465 29.3121L36.356 17.043L20.1702 27.9Z" fill="#D2D2D7"/>
<path d="M27.1184 32.0843L22.5991 36.6405L23.4465 29.312L27.1184 32.0843Z" fill="#B9B9BE"/>
</g>
<defs>
<clipPath id="clip0">
<rect width="50" height="50" fill="white" transform="translate(0.874512 0.669434)"/>
</clipPath>
</defs>
</svg>
